<?xml version="1.0" encoding="utf-8"?>
<!-- Generator: Adobe Illustrator 21.0.0, SVG Export Plug-In . SVG Version: 6.00 Build 0)  -->
<svg version="1.1" id="Capa_1" xmlns="http://www.w3.org/2000/svg" xmlns:xlink="http://www.w3.org/1999/xlink" x="0px" y="0px"
	 viewBox="0 0 1366 768" style="enable-background:new 0 0 1366 768;" xml:space="preserve">
<style type="text/css">
	.st0{fill:#D2D309;stroke:#1D1C1A;stroke-width:3;stroke-miterlimit:10;}
	.st1{fill:#009239;stroke:#1D1C1A;stroke-width:3;stroke-miterlimit:10;}
	.st2{fill:#162C82;stroke:#1D1C1A;stroke-width:3;stroke-miterlimit:10;}
	.st3{fill:#E10B23;stroke:#1D1C1A;stroke-width:3;stroke-miterlimit:10;}
	.st4{fill:#EC7F0B;stroke:#1D1C1A;stroke-width:3;stroke-miterlimit:10;}
	.st5{stroke:#000000;stroke-width:6;stroke-miterlimit:10;}
</style>
<path class="st0" d="M728.5,428H576.9c-20.6,0-37.4-16.6-37.4-36.9v-4c0-20.3,16.8-36.9,37.4-36.9h151.6c20.6,0,37.4,16.6,37.4,36.9
	v4C765.9,411.2,749.1,428,728.5,428z"/>
<path class="st1" d="M540.3,401.4l-40.6-144.3c-5.5-19.6,6.1-40,26-45.4l3.8-1c19.8-5.4,40.6,6.1,46,25.6l40.6,144.3
	c5.5,19.6-6.1,40-26,45.4l-3.8,1C566.5,432.5,545.8,421,540.3,401.4z"/>
<path class="st2" d="M682.8,195.6l-124,85.8c-16.8,11.8-40.3,7.8-52.3-8.8l-2.2-3.2c-11.9-16.6-7.6-39.8,9.2-51.6l124-85.8
	c16.8-11.8,40.3-7.8,52.3,8.8l2.2,3.2C703.9,160.8,699.8,183.8,682.8,195.6z"/>
<path class="st3" d="M755.9,284.2l-121.3-89.6c-16.5-12-20-35.6-7.6-51.6l2.4-3.5c12.2-16.3,36-19.8,52.3-7.5l121.6,89.6
	c16.5,12,20,35.6,7.6,51.6l-2.4,3.2C795.9,293.1,772.4,296.3,755.9,284.2z"/>
<path class="st4" d="M816.7,262.3l-50.6,141.1c-6.8,19.2-28.4,29.4-47.7,22.5l-3.8-1.3c-19.5-6.7-29.8-28.1-22.7-47l50.6-141.1
	c6.8-19.2,28.4-29.4,47.7-22.5l3.8,1.3C813.5,221.9,823.8,243.1,816.7,262.3z"/>
<path class="st0" d="M655,350.3h75.8c0,0,33.3-1.2,37.4,36.9c0,41.8-37.4,40.9-37.4,40.9H655"/>
<g>
	<path d="M602.9,296.5l14.7-1.9c0,0-7.2-18.3,10.6-25c20.6-5.8,25,12.9,25,12.9h-26.2v11l41.8-7.2v-51.6h-14.2v25
		c0,0-16.1-12-33.8-2.9C594.9,270.8,602.9,296.5,602.9,296.5z"/>
	<path d="M604.7,301.9l16.8-1.5c0,0,6.7,5.7,13,6.3c6.3,0.7,14.4-5.7,14.4-5.7l5.7,5.7v-10.9l14.3-2.2v27.4h-14.2v-6.3
		c0,0-7.2,7.9-25,5.8C611.9,318.5,604.7,301.9,604.7,301.9z"/>
	<polygon points="676.8,277.7 693.4,253.7 710.5,253.7 693.9,277.8 	"/>
	<path d="M676.8,291.9l11.7-2.7c0,0,8.4,2.7,15.4,11.8c7,9.1,6.5,19.9,6.5,19.9h-14.9c0,0,1.5-6.9-5.1-13.5
		c-6.7-6.7-13.5-5.3-13.5-5.3V291.9z"/>
	<polygon points="598.5,283.7 598.8,296.8 592.1,290.4 	"/>
</g>
<g>
	<path class="st5" d="M606,462.1v-4.4c0-5.1-0.2-9.2-0.5-12.2c-0.4-3-0.9-5.5-1.7-7.1c1.2-0.8,2.4-1.3,3.4-1.6
		c1.1-0.4,2-0.5,2.8-0.5c1.4,0,2.5,0.5,3,1.3c0.6,0.8,0.8,2.4,0.8,4.6c0,1.4-0.2,6.4-0.7,14.8s-0.8,16.2-0.8,23.2
		c-0.1,8.6,0.2,14.7,0.5,18.7c0.4,3.9,1.1,6.8,2.2,8.8c-1.4,0.8-2.6,1.3-3.6,1.7c-1.1,0.4-2.1,0.5-3,0.5c-1.2,0-2-0.4-2.6-1.1
		c-0.5-0.8-0.8-2.1-0.8-3.9c0-0.6,0-1.1,0.1-1.4c0.1-0.3,0.1-0.7,0.1-1c-2.4,2.8-4.9,4.9-7.4,6.1c-2.6,1.3-5.5,2-8.6,1.9
		c-6.1-0.1-11-2.3-14.9-6.7c-3.9-4.4-5.7-10.2-5.7-17.1c0.1-7.9,2.5-14.3,7.3-19.5c4.8-5.2,10.9-7.7,18.1-7.6c1.7,0,3.6,0.2,5.6,0.7
		C601.7,460.4,603.9,461.2,606,462.1z M605.2,494.9c0.1-3.3,0.2-6.8,0.2-10.5s0.1-5.8,0.1-6.3c0-2.5,0-4.4,0-5.7
		c0-1.2,0-2.4-0.1-3.5c-2.1-1-4.2-1.7-6.1-2.3c-1.9-0.5-3.6-0.8-5.3-0.8c-5.3,0-9.6,1.7-12.7,5.4c-3.1,3.6-4.7,8.6-4.8,14.9
		c0,5.2,1.2,9.3,3.7,12.4s6,4.6,10.3,4.6c2.8,0,5.4-0.7,7.8-2C601,499.9,603.2,497.8,605.2,494.9z"/>
</g>
<g>
	<path class="st5" d="M652.6,502.3c-2.1,2.7-4.4,4.7-6.8,5.9c-2.4,1.2-5.1,1.8-8.1,1.7c-5-0.2-8.8-1.9-11.4-5.2
		c-2.6-3.4-3.8-8.2-3.6-14.5c0-1.4,0.2-3.8,0.4-7.4c0.2-3.6,0.4-6.5,0.5-8.8c0.1-3,0-5.6-0.3-7.7c-0.3-2-0.8-3.9-1.5-5.4
		c1.4-0.7,2.6-1.2,3.6-1.5c1.1-0.3,1.9-0.5,2.6-0.5c1.4,0,2.4,0.5,2.9,1.2c0.5,0.8,0.8,2.3,0.7,4.3c-0.1,1.7-0.2,4.9-0.6,9.6
		c-0.4,4.7-0.6,8.6-0.7,11.6c-0.2,6.4,0.5,10.8,1.7,13.3c1.4,2.5,3.7,3.8,7.2,3.9c2.5,0.1,4.9-0.5,7.1-1.8c2.2-1.3,4.3-3.3,6.4-6.1
		c0.2-2.1,0.3-4.4,0.5-6.8c0.2-2.4,0.2-4.9,0.3-7.7c0.1-4.6,0-8.3-0.4-11.4c-0.3-3-0.9-5.5-1.7-7.3c1.4-0.8,2.7-1.3,3.7-1.6
		s2-0.5,3-0.5c1.4,0,2.3,0.5,2.7,1.4c0.5,0.9,0.7,3,0.6,6.1c0,1.4-0.2,4.7-0.5,9.7c-0.3,5-0.5,9.3-0.5,12.7c-0.2,4.9,0,8.7,0.3,11.5
		c0.3,2.7,0.9,4.8,1.7,6.3c-1.5,0.8-2.8,1.3-3.8,1.7c-1,0.3-1.9,0.5-2.6,0.5c-1.3,0-2.2-0.5-2.7-1.5
		C652.7,507,652.6,505.1,652.6,502.3z"/>
</g>
<g>
	<path class="st5" d="M680.9,470.2c7.9-8.4,13.9-15.3,18-20.4c4.1-5.2,6.7-9.4,7.9-12.5c2.3,0.7,4,1.4,5.2,2.4
		c1.1,0.9,1.7,2,1.7,3.1c0,2-4.7,7.7-14.1,17.4c-4,4.1-7.3,7.4-9.6,9.9c1.2,1.4,3,3.5,5.2,6.1c15.4,17.9,24.6,26.9,27.6,27.2
		c-0.5,2.5-1.3,4.3-2.3,5.7c-1,1.3-2.1,2-3.3,2c-1.1,0-2.4-0.5-3.7-1.4c-1.3-1-3.1-2.7-5.3-5.4c-0.4-0.5-3.6-4.4-9.6-11.9
		c-6.1-7.5-11.9-14.3-17.6-20.2l-0.1,7.3c-0.1,7.8,0.1,13.8,0.4,18c0.3,4.2,0.9,7.4,1.7,9.5c-1.4,1-2.7,1.7-3.9,2.2
		s-2.2,0.7-3.3,0.7c-1.5,0-2.7-0.7-3.3-2c-0.7-1.3-1-3.3-1-6.2c0-1.7,0.2-6.2,0.5-13.7c0.4-7.5,0.5-14.3,0.6-20.2
		c0.1-8.2-0.1-14.3-0.5-18.4c-0.4-4-1.1-7.1-2.1-9.3c1.4-0.8,2.8-1.4,4-1.9c1.2-0.5,2.4-0.6,3.4-0.6c1.6,0,2.7,0.5,3.3,1.4
		c0.6,0.9,0.9,2.7,0.9,5.2c0,0.5-0.1,1.7-0.2,3.8C681.3,455.8,681,463.3,680.9,470.2z"/>
</g>
<g>
	<path class="st5" d="M742.7,507.8c-1.3,0.8-2.5,1.4-3.6,1.7c-1.1,0.4-2.3,0.5-3.3,0.5c-1.5,0-2.5-0.5-3-1.3
		c-0.5-0.9-0.8-2.7-0.8-5.3c0-1.5,0.2-5,0.4-10.3c0.3-5.3,0.4-9.9,0.4-13.7c0-4.2-0.2-7.6-0.5-10.2c-0.4-2.6-1-4.9-1.7-6.7
		c1.1-0.8,2.3-1.3,3.5-1.7c1.2-0.4,2.4-0.6,3.5-0.6c1.4,0,2.4,0.4,2.9,1.1s0.8,2.1,0.8,4.2c0,0.5-0.2,3.5-0.4,8.7
		c-0.2,5.2-0.5,10.4-0.5,15.2c0,4.5,0.2,8.2,0.6,11.1C741.2,503.5,741.8,505.9,742.7,507.8z M742.3,445c0,1.9-0.6,3.5-1.8,4.8
		c-1.2,1.3-2.7,1.9-4.6,1.9c-1.6,0-2.9-0.5-3.9-1.5c-0.9-1-1.4-2.4-1.4-4c0-1.9,0.6-3.5,1.8-4.8c1.2-1.3,2.7-2,4.4-2
		c1.6,0,2.9,0.5,3.9,1.6C741.8,441.9,742.3,443.3,742.3,445z"/>
</g>
<g>
	<path class="st5" d="M758.7,466.7c-0.7,0-1.7,0-2.9,0.1c-1.2,0.1-2,0.1-2.4,0.1c-1.7,0-2.8-0.2-3.5-0.6c-0.7-0.4-1-1.1-1-2.1
		c0-0.5,0.1-1,0.3-1.7c0.2-0.6,0.5-1.4,0.9-2.1c0.3,0,0.9,0,1.7,0.1c0.8,0,1.4,0.1,1.8,0.1c1.1,0,2.7-0.1,5.1-0.2
		c0.3,0,0.5,0,0.7-0.1c0-0.4,0-1,0.1-1.7c0.1-0.8,0.1-1.4,0.1-1.7c0-2.8-0.2-5.3-0.6-7.4s-1.1-4-1.9-5.6c1.7-0.8,3.3-1.4,4.7-1.7
		c1.4-0.4,2.6-0.6,3.6-0.6c1.7,0,2.9,0.5,3.6,1.4c0.8,0.9,1.1,2.4,1.1,4.5c0,0.9-0.2,3.7-0.5,8.5c-0.2,1.7-0.2,3.2-0.3,4.2
		c2.4-0.3,4.5-0.5,6.4-0.7c1.9-0.2,3.6-0.2,5.1-0.2c1.4,0,2.3,0.2,2.9,0.7s0.9,1.1,0.9,2.1c0,0.5-0.2,1.2-0.5,2
		c-0.4,0.8-0.9,1.7-1.6,2.7c-1.1-0.2-2.2-0.4-3.3-0.5c-1.1-0.1-2.6-0.2-4.2-0.2c-0.3,0-1.1,0-2.6,0.1c-1.4,0.1-2.7,0.1-3.6,0.2
		c-0.4,5.6-0.6,10.2-0.8,13.9c-0.2,3.6-0.2,6.6-0.2,8.9c0,5,0.5,8.5,1.5,10.5c1,2,2.7,3,5,3c0.7,0,1.4-0.1,2-0.3
		c0.7-0.2,1.4-0.5,2.2-1.1c0.4,0.7,0.6,1.4,0.8,1.9c0.2,0.5,0.2,1,0.2,1.4c0,1.7-0.8,3.2-2.5,4.3c-1.7,1.1-3.8,1.7-6.4,1.7
		c-4.4,0-7.7-1.3-9.8-3.9c-2.1-2.6-3.2-6.5-3.2-11.8c0-1.5,0.2-5.5,0.6-12C758.1,476.2,758.5,470.8,758.7,466.7z"/>
</g>
<g>
	<path class="st5" d="M564.2,448.2c-1.6-0.8-3.6-1.4-5.8-1.7c-2.3-0.4-5.2-0.6-8.7-0.6c-1.4,0-4.2,0.1-8.1,0.2c-1,0-1.7,0.1-2.2,0.1
		l-0.4,22.2c0.8,0.1,1.7,0.1,2.7,0.1c0.9,0,2.4,0,4.5,0c4,0,7.4-0.1,10-0.3c2.7-0.2,4.6-0.5,5.8-0.9c0.4,0.9,0.6,1.7,0.8,2.5
		c0.2,0.7,0.3,1.4,0.3,1.9c0,1.6-0.5,2.7-1.4,3.5c-0.9,0.7-2.5,1.1-4.6,1.1c-0.7,0-2.4,0-5.2-0.1s-5.2-0.1-7.1-0.1
		c-1.5,0-2.7,0-3.5,0c-0.8,0-1.6,0.1-2.3,0.1c0,3.8-0.1,7.8-0.2,12.1s-0.2,9-0.4,14c0.3,0,0.8,0,1.4,0.1c4,0.1,6.8,0.2,8.6,0.2
		c3.3,0,6.1-0.2,8.3-0.6c2.3-0.5,4.3-1.1,6.1-2c0.7,1.3,1.1,2.4,1.4,3.3c0.3,1,0.5,1.8,0.5,2.7c0,1.7-0.5,3-1.6,3.7
		s-3.1,1.1-6.1,1.1c-1.4,0-3.6-0.1-6.6-0.2c-3-0.1-5.1-0.2-6.5-0.2c-3.3,0-6.4,0.1-9.7,0.2c-0.7,0-1.1,0.1-1.2,0.1
		c-1.1,0-1.8-0.3-2.3-0.8c-0.5-0.5-0.7-1.4-0.7-2.8c0-0.7,0.1-2.5,0.2-5.4c0.5-10.3,0.8-20,0.8-29.1c0-9-0.2-16.2-0.5-21.5
		c-0.3-5.4-0.8-9.5-1.4-12.1h5.8c7.1,0,14.4-0.2,21.9-0.8c1.6-0.1,2.6-0.2,3-0.2c2.5,0,4.2,0.3,5.1,0.9c0.9,0.6,1.4,1.7,1.4,3.2
		c0,0.8-0.2,1.8-0.5,3C565.4,445.7,564.9,446.9,564.2,448.2z"/>
</g>
<g>
	<path d="M366.2,535.2c0,1.4,0.4,2.5,1.1,3.3c0.7,0.9,1.6,1.5,2.8,1.9c1.1,0.4,2.4,0.8,3.7,1.1c1.4,0.3,2.7,0.6,4.1,1
		c1.4,0.4,2.6,0.8,3.7,1.4c1.1,0.6,2,1.5,2.8,2.7c0.7,1.2,1.1,2.7,1.1,4.4c0,2.6-1,4.9-2.9,6.8c-1.9,2-4.6,2.9-8,2.9
		c-3.4,0-6.1-0.8-8.3-2.3c-2.1-1.5-3.2-3.6-3.2-6.1h3.7c0.1,1.6,0.8,2.9,2,3.9c1.2,1,3,1.6,5.5,1.6s4.4-0.6,5.8-1.9
		c1.4-1.3,2.2-2.8,2.2-4.7c0-1.9-0.7-3.3-2-4.2c-1.3-0.9-2.9-1.6-4.8-2c-1.9-0.4-3.7-0.8-5.6-1.3c-1.9-0.5-3.5-1.4-4.8-2.8
		c-1.3-1.4-2-3.4-2-6c0-2.6,1-4.8,2.9-6.5c2-1.7,4.6-2.6,7.8-2.6s5.8,0.7,7.6,2.2c1.9,1.5,3,3.5,3.4,5.9h-3.9
		c-0.1-1.4-0.8-2.6-2.1-3.6c-1.3-1-3-1.6-5.2-1.6s-3.9,0.5-5.3,1.6C366.9,531.5,366.2,533.1,366.2,535.2z"/>
	<path d="M403.3,560.9c-3.9,0-7-1.3-9.4-3.9c-2.4-2.6-3.6-6-3.6-10.2s1.2-7.6,3.7-10.2c2.5-2.6,5.6-3.8,9.6-3.8c3.9,0,7,1.2,9.3,3.6
		c2.3,2.4,3.5,5.4,3.5,9c0,1-0.1,1.9-0.2,2.7h-22.3c0.1,3.1,1.1,5.6,2.8,7.3c1.8,1.8,4,2.7,6.6,2.7c2.1,0,3.9-0.5,5.3-1.4
		c1.5-1,2.5-2.2,3-3.8h3.7c-0.9,2.3-2.3,4.2-4.4,5.7S406.5,560.9,403.3,560.9z M412.8,545.4c0-3-0.9-5.3-2.7-7.1
		c-1.8-1.8-4-2.7-6.7-2.7c-2.7,0-4.9,0.9-6.6,2.6c-1.8,1.7-2.7,4.1-2.9,7.2H412.8z"/>
	<path d="M424,556.8c-2.5-2.7-3.7-6.1-3.7-10.2c0-4.1,1.2-7.5,3.7-10c2.5-2.5,5.6-3.8,9.4-3.8c2.4,0,4.6,0.6,6.4,1.8
		c1.9,1.2,3.2,2.7,4.1,4.6v-5.9h3.5v28c0,3.7-1.2,6.6-3.6,8.9c-2.4,2.3-5.4,3.4-8.9,3.4c-3.5,0-6.5-0.9-8.9-2.6
		c-2.4-1.7-3.8-3.8-4.2-6.4h3.4c0.4,1.7,1.5,3.1,3.3,4.3c1.8,1.2,3.9,1.7,6.4,1.7c2.5,0,4.7-0.8,6.4-2.5s2.6-4,2.6-6.9v-6.9
		c-0.9,1.9-2.3,3.4-4.1,4.6c-1.9,1.2-4,1.8-6.4,1.8C429.6,560.9,426.5,559.5,424,556.8z M440.9,554.8c2-2,2.9-4.7,2.9-8
		c0-3.3-1-6-2.9-8c-2-2-4.3-3-7.1-3c-2.8,0-5.1,1-7.1,2.9c-1.9,2-2.9,4.6-2.9,7.9s1,6,2.9,8.1c2,2.1,4.3,3.1,7.1,3.1
		C436.6,557.9,439,556.9,440.9,554.8z"/>
	<path d="M474.1,533.3h3.5v27.1h-3.5V556c-1.8,3.3-4.8,4.9-9,4.9c-3,0-5.5-1-7.5-2.9c-2-2-3-4.8-3-8.5v-16.1h3.4v15.5
		c0,3,0.7,5.2,2.2,6.8s3.4,2.3,5.9,2.3c2.5,0,4.5-0.8,5.9-2.3s2.2-3.8,2.2-6.8V533.3z"/>
	<path d="M489.3,525.7c0,0.7-0.2,1.3-0.7,1.8c-0.5,0.5-1.1,0.7-1.8,0.7c-0.7,0-1.3-0.2-1.8-0.7c-0.5-0.5-0.7-1.1-0.7-1.8
		c0-0.7,0.2-1.3,0.7-1.8c0.5-0.5,1.1-0.7,1.8-0.7c0.7,0,1.3,0.2,1.8,0.7C489.1,524.3,489.3,524.9,489.3,525.7z M485,560.4v-27.1h3.5
		v27.1H485z"/>
	<path d="M499.4,533.3v4.4c1.8-3.3,4.8-4.9,9-4.9c2.1,0,4.1,0.5,5.8,1.5c1.7,1,3,2.5,3.8,4.5c0.9-1.9,2.3-3.4,4-4.5
		c1.7-1.1,3.7-1.6,6-1.6c3,0,5.5,1,7.5,2.9s3,4.8,3,8.5v16.1H535v-15.5c0-3-0.7-5.2-2.2-6.8c-1.4-1.6-3.4-2.3-5.9-2.3
		c-2.5,0-4.5,0.8-5.9,2.3c-1.4,1.6-2.2,3.8-2.2,6.8v15.5h-3.4v-15.5c0-3-0.7-5.2-2.2-6.8c-1.4-1.6-3.4-2.3-5.9-2.3
		c-2.5,0-4.5,0.8-5.9,2.3c-1.4,1.6-2.2,3.8-2.2,6.8v15.5h-3.5v-27.1H499.4z"/>
	<path d="M549.9,525.7c0,0.7-0.2,1.3-0.7,1.8c-0.5,0.5-1.1,0.7-1.8,0.7c-0.7,0-1.3-0.2-1.8-0.7c-0.5-0.5-0.7-1.1-0.7-1.8
		c0-0.7,0.2-1.3,0.7-1.8c0.5-0.5,1.1-0.7,1.8-0.7c0.7,0,1.3,0.2,1.8,0.7C549.7,524.3,549.9,524.9,549.9,525.7z M545.6,560.4v-27.1
		h3.5v27.1H545.6z"/>
	<path d="M567.8,560.9c-3.9,0-7-1.3-9.4-3.9c-2.4-2.6-3.6-6-3.6-10.2s1.2-7.6,3.7-10.2c2.5-2.6,5.6-3.8,9.6-3.8c3.9,0,7,1.2,9.3,3.6
		c2.3,2.4,3.5,5.4,3.5,9c0,1-0.1,1.9-0.2,2.7h-22.3c0.1,3.1,1.1,5.6,2.8,7.3c1.8,1.8,4,2.7,6.6,2.7c2.1,0,3.9-0.5,5.3-1.4
		c1.5-1,2.5-2.2,3-3.8h3.7c-0.9,2.3-2.3,4.2-4.4,5.7S570.9,560.9,567.8,560.9z M577.3,545.4c0-3-0.9-5.3-2.7-7.1
		c-1.8-1.8-4-2.7-6.7-2.7c-2.7,0-4.9,0.9-6.6,2.6c-1.8,1.7-2.7,4.1-2.9,7.2H577.3z"/>
	<path d="M589.9,533.3v4.4c1.8-3.3,4.8-4.9,9-4.9c3,0,5.5,1,7.5,2.9c2,2,3,4.8,3,8.5v16.1H606v-15.5c0-3-0.7-5.2-2.2-6.8
		c-1.4-1.6-3.4-2.3-5.9-2.3c-2.5,0-4.5,0.8-5.9,2.3c-1.4,1.6-2.2,3.8-2.2,6.8v15.5h-3.5v-27.1H589.9z"/>
	<path d="M628.7,536h-7.5V554c0,1.4,0.3,2.3,0.8,2.8c0.5,0.5,1.5,0.8,2.8,0.8h3.9v2.7h-4.6c-4.2,0-6.3-2.1-6.3-6.4V536H614v-2.7h3.8
		v-6.8h3.5v6.8h7.5V536z"/>
	<path d="M644.8,560.9c-3.9,0-7-1.3-9.5-3.9c-2.4-2.6-3.6-6-3.6-10.1c0-4.2,1.3-7.6,3.9-10.2c2.6-2.6,5.8-3.9,9.7-3.9
		c3.9,0,7.1,1.3,9.7,3.9c2.6,2.6,3.9,6,3.9,10.1c0,4.1-1.4,7.5-4.1,10.1C652,559.6,648.7,560.9,644.8,560.9z M644.8,558.1
		c2.8,0,5.2-1,7.3-3c2-2,3.1-4.8,3.1-8.3c0-3.5-1-6.2-2.9-8.2c-1.9-2-4.3-3-7.1-3c-2.8,0-5.2,1-7,3c-1.9,2-2.8,4.7-2.8,8.3
		c0,3.5,0.9,6.3,2.7,8.3S642,558.1,644.8,558.1z"/>
	<path d="M681.3,556.8c-2.5-2.7-3.7-6.1-3.7-10.2c0-4.1,1.2-7.5,3.7-10c2.5-2.5,5.6-3.8,9.4-3.8c2.4,0,4.6,0.6,6.4,1.8
		c1.8,1.2,3.2,2.7,4.1,4.6v-5.9h3.5v27.1h-3.5v-5.9c-0.9,1.9-2.3,3.4-4.1,4.6c-1.9,1.2-4,1.8-6.4,1.8
		C686.9,560.9,683.8,559.5,681.3,556.8z M698.3,554.8c2-2,2.9-4.7,2.9-8c0-3.3-1-6-2.9-8s-4.3-3-7.1-3s-5.1,1-7.1,2.9
		c-2,2-2.9,4.6-2.9,7.9s1,6,2.9,8.1c2,2.1,4.3,3.1,7.1,3.1S696.3,556.9,698.3,554.8z"/>
	<path d="M714,557c-2.4-2.6-3.6-6-3.6-10.2c0-4.2,1.2-7.6,3.6-10.2c2.4-2.6,5.6-3.9,9.4-3.9c6.3,0,10.4,2.8,12.1,8.5h-3.7
		c-0.6-1.8-1.6-3.2-3-4.2c-1.4-1-3.2-1.5-5.4-1.5c-2.8,0-5.1,1-6.8,2.9c-1.8,1.9-2.6,4.7-2.6,8.3c0,3.6,0.9,6.4,2.6,8.4
		c1.8,1.9,4,2.9,6.8,2.9c2.1,0,3.9-0.5,5.4-1.5c1.4-1,2.4-2.4,3-4.2h3.7c-0.9,2.6-2.3,4.6-4.3,6.2c-2,1.6-4.6,2.3-7.8,2.3
		C719.6,560.9,716.4,559.6,714,557z"/>
	<path d="M743.9,556.8c-2.5-2.7-3.7-6.1-3.7-10.2c0-4.1,1.2-7.5,3.7-10c2.5-2.5,5.6-3.8,9.4-3.8c2.4,0,4.6,0.6,6.4,1.8
		c1.8,1.2,3.2,2.7,4.1,4.6v-5.9h3.5v27.1h-3.5v-5.9c-0.9,1.9-2.3,3.4-4.1,4.6c-1.9,1.2-4,1.8-6.4,1.8
		C749.5,560.9,746.3,559.5,743.9,556.8z M760.8,554.8c2-2,2.9-4.7,2.9-8c0-3.3-1-6-2.9-8s-4.3-3-7.1-3s-5.1,1-7.1,2.9
		c-2,2-2.9,4.6-2.9,7.9s1,6,2.9,8.1c2,2.1,4.3,3.1,7.1,3.1S758.9,556.9,760.8,554.8z"/>
	<path d="M776.7,556.8c-2.5-2.7-3.7-6.1-3.7-10.2c0-4.1,1.2-7.5,3.7-10c2.5-2.5,5.6-3.8,9.4-3.8c2.4,0,4.6,0.6,6.4,1.8
		c1.8,1.2,3.2,2.7,4.1,4.6v-15.5h3.5v36.7h-3.5v-5.9c-0.9,1.9-2.3,3.4-4.1,4.6c-1.9,1.2-4,1.8-6.4,1.8
		C782.3,560.9,779.1,559.5,776.7,556.8z M793.6,554.8c2-2,2.9-4.7,2.9-8c0-3.3-1-6-2.9-8s-4.3-3-7.1-3s-5.1,1-7.1,2.9
		c-2,2-2.9,4.6-2.9,7.9s1,6,2.9,8.1c2,2.1,4.3,3.1,7.1,3.1S791.7,556.9,793.6,554.8z"/>
	<path d="M818.8,560.9c-3.9,0-7-1.3-9.4-3.9c-2.4-2.6-3.6-6-3.6-10.2s1.2-7.6,3.7-10.2c2.5-2.6,5.6-3.8,9.6-3.8s7,1.2,9.3,3.6
		c2.3,2.4,3.5,5.4,3.5,9c0,1-0.1,1.9-0.2,2.7h-22.3c0.1,3.1,1.1,5.6,2.8,7.3c1.8,1.8,4,2.7,6.6,2.7c2.1,0,3.9-0.5,5.3-1.4
		c1.5-1,2.5-2.2,3-3.8h3.7c-0.9,2.3-2.3,4.2-4.4,5.7C824.5,560.1,821.9,560.9,818.8,560.9z M828.2,545.4c0-3-0.9-5.3-2.7-7.1
		c-1.8-1.8-4-2.7-6.7-2.7c-2.7,0-4.9,0.9-6.6,2.6s-2.7,4.1-2.9,7.2H828.2z M823.3,522.2v3.5l-10.2,5.7v-2.8L823.3,522.2z"/>
	<path d="M840.9,533.3v4.4c1.8-3.3,4.8-4.9,9-4.9c2.1,0,4.1,0.5,5.8,1.5c1.7,1,3,2.5,3.8,4.5c0.9-1.9,2.3-3.4,4-4.5
		c1.7-1.1,3.7-1.6,6-1.6c3,0,5.5,1,7.5,2.9c2,2,3,4.8,3,8.5v16.1h-3.4v-15.5c0-3-0.7-5.2-2.2-6.8c-1.4-1.6-3.4-2.3-5.9-2.3
		c-2.5,0-4.5,0.8-5.9,2.3c-1.4,1.6-2.2,3.8-2.2,6.8v15.5H857v-15.5c0-3-0.7-5.2-2.2-6.8c-1.4-1.6-3.4-2.3-5.9-2.3s-4.5,0.8-5.9,2.3
		c-1.4,1.6-2.2,3.8-2.2,6.8v15.5h-3.5v-27.1H840.9z"/>
	<path d="M891.5,525.7c0,0.7-0.2,1.3-0.7,1.8c-0.5,0.5-1.1,0.7-1.8,0.7c-0.7,0-1.3-0.2-1.8-0.7c-0.5-0.5-0.7-1.1-0.7-1.8
		c0-0.7,0.2-1.3,0.7-1.8c0.5-0.5,1.1-0.7,1.8-0.7c0.7,0,1.3,0.2,1.8,0.7C891.2,524.3,891.5,524.9,891.5,525.7z M887.2,560.4v-27.1
		h3.5v27.1H887.2z"/>
	<path d="M900,557c-2.4-2.6-3.6-6-3.6-10.2c0-4.2,1.2-7.6,3.6-10.2c2.4-2.6,5.6-3.9,9.4-3.9c6.3,0,10.4,2.8,12.1,8.5h-3.7
		c-0.6-1.8-1.6-3.2-3-4.2c-1.4-1-3.2-1.5-5.4-1.5c-2.8,0-5.1,1-6.8,2.9c-1.8,1.9-2.6,4.7-2.6,8.3c0,3.6,0.9,6.4,2.6,8.4
		c1.8,1.9,4,2.9,6.8,2.9c2.1,0,3.9-0.5,5.4-1.5c1.4-1,2.4-2.4,3-4.2h3.7c-0.9,2.6-2.3,4.6-4.3,6.2c-2,1.6-4.6,2.3-7.8,2.3
		C905.5,560.9,902.4,559.6,900,557z"/>
	<path d="M939.2,560.9c-3.9,0-7-1.3-9.5-3.9c-2.4-2.6-3.6-6-3.6-10.1c0-4.2,1.3-7.6,3.9-10.2c2.6-2.6,5.8-3.9,9.7-3.9
		c3.9,0,7.1,1.3,9.7,3.9c2.6,2.6,3.9,6,3.9,10.1c0,4.1-1.4,7.5-4.1,10.1C946.4,559.6,943.1,560.9,939.2,560.9z M939.2,558.1
		c2.8,0,5.2-1,7.3-3c2-2,3.1-4.8,3.1-8.3c0-3.5-1-6.2-2.9-8.2c-2-2-4.3-3-7.1-3c-2.8,0-5.2,1-7,3c-1.9,2-2.8,4.7-2.8,8.3
		c0,3.5,0.9,6.3,2.7,8.3S936.3,558.1,939.2,558.1z"/>
</g>
<g>
</g>
<g>
</g>
<g>
</g>
<g>
</g>
<g>
</g>
<g>
</g>
<g>
</g>
<g>
</g>
<g>
</g>
<g>
</g>
<g>
</g>
<g>
</g>
<g>
</g>
<g>
</g>
<g>
</g>
</svg>
