<?xml version="1.0" encoding="utf-8"?>
<!-- Generator: Adobe Illustrator 21.0.0, SVG Export Plug-In . SVG Version: 6.00 Build 0)  -->
<svg version="1.1" id="Capa_1" xmlns="http://www.w3.org/2000/svg" xmlns:xlink="http://www.w3.org/1999/xlink" x="0px" y="0px"
	 viewBox="0 0 510.5 126.4" style="enable-background:new 0 0 510.5 126.4;" xml:space="preserve">
<style type="text/css">
	.st0{fill:#FFFFFF;}
	.st1{fill:#FFFFFF;stroke:#FFFFFF;stroke-width:6;stroke-miterlimit:10;}
	.st2{fill:#D3D505;}
	.st3{fill:#039238;}
	.st4{fill:#162985;}
	.st5{fill:#E40821;}
	.st6{fill:#ED7F04;}
</style>
<circle class="st0" cx="64" cy="63.2" r="63.2"/>
<g>
	<path class="st1" d="M234.2,46.7v-5.8c0-6.7-0.2-12.1-0.6-16.1c-0.5-4-1.2-7.2-2.2-9.4c1.6-1,3.1-1.7,4.5-2.1
		c1.4-0.5,2.7-0.7,3.7-0.7c1.9,0,3.3,0.6,4,1.7c0.8,1.1,1.1,3.2,1.1,6.1c0,1.9-0.3,8.4-0.9,19.5c-0.6,11.1-1,21.3-1,30.6
		c-0.1,11.3,0.2,19.4,0.7,24.6c0.5,5.1,1.5,9,2.9,11.6c-1.8,1-3.4,1.7-4.8,2.2c-1.4,0.5-2.8,0.7-4,0.7c-1.6,0-2.7-0.5-3.4-1.5
		s-1-2.8-1-5.2c0-0.8,0-1.5,0.1-1.9s0.1-0.9,0.1-1.3c-3.2,3.7-6.4,6.4-9.8,8.1s-7.2,2.6-11.3,2.5c-8-0.1-14.5-3-19.6-8.8
		s-7.5-13.4-7.5-22.6c0.1-10.4,3.3-18.9,9.6-25.7s14.3-10.1,23.8-10c2.3,0,4.8,0.3,7.4,0.9C228.6,44.5,231.4,45.5,234.2,46.7z
		 M233.2,89.9c0.1-4.3,0.2-8.9,0.3-13.8s0.1-7.7,0.1-8.3c0-3.3,0-5.8,0-7.5c0-1.6,0-3.1-0.1-4.6c-2.8-1.3-5.5-2.3-8-3s-4.8-1-7-1
		c-7,0-12.6,2.3-16.7,7.1c-4.1,4.8-6.2,11.3-6.3,19.6c0,6.9,1.6,12.3,4.9,16.3c3.3,4,7.9,6.1,13.6,6.1c3.7,0,7.1-0.9,10.3-2.7
		C227.6,96.5,230.5,93.7,233.2,89.9z"/>
</g>
<g>
	<path class="st1" d="M295.6,99.6c-2.8,3.6-5.8,6.2-9,7.8c-3.2,1.6-6.7,2.4-10.7,2.3c-6.6-0.2-11.6-2.5-15-6.9
		c-3.4-4.5-5-10.8-4.8-19.1c0-1.8,0.2-5,0.5-9.7c0.3-4.7,0.5-8.6,0.6-11.6c0.1-4,0-7.4-0.4-10.1c-0.4-2.7-1-5.1-2-7.1
		c1.8-0.9,3.4-1.6,4.8-2s2.5-0.6,3.4-0.6c1.9,0,3.2,0.6,3.8,1.6c0.7,1,1,3,0.9,5.7c-0.1,2.2-0.3,6.4-0.8,12.6s-0.8,11.3-0.9,15.3
		c-0.2,8.4,0.6,14.2,2.3,17.5c1.8,3.3,4.9,5,9.5,5.1c3.3,0.1,6.4-0.7,9.3-2.4c2.9-1.7,5.7-4.4,8.5-8.1c0.2-2.8,0.4-5.8,0.6-8.9
		s0.3-6.5,0.4-10.2c0.1-6,0-11-0.5-15c-0.4-4-1.2-7.2-2.3-9.6c1.8-1,3.5-1.7,4.9-2.1c1.4-0.4,2.7-0.7,3.9-0.6c1.8,0,3,0.7,3.6,1.9
		c0.7,1.2,0.9,3.9,0.8,8c0,1.9-0.3,6.2-0.6,12.8c-0.4,6.6-0.6,12.2-0.7,16.8c-0.2,6.5,0,11.5,0.4,15.1s1.2,6.3,2.3,8.3
		c-2,1-3.7,1.7-5,2.2c-1.3,0.4-2.5,0.6-3.4,0.6c-1.7,0-2.9-0.7-3.5-2C295.8,105.9,295.6,103.3,295.6,99.6z"/>
</g>
<g>
	<path class="st1" d="M332.9,57.4c10.4-11.1,18.3-20.1,23.7-26.9c5.4-6.9,8.8-12.4,10.4-16.5c3,0.9,5.3,1.9,6.8,3.1s2.2,2.6,2.2,4.1
		c0,2.6-6.2,10.2-18.6,22.9c-5.3,5.4-9.6,9.8-12.7,13c1.6,1.9,3.9,4.6,6.9,8.1C371.9,88.8,384,100.7,388,101c-0.7,3.3-1.7,5.7-3,7.5
		c-1.3,1.7-2.8,2.6-4.4,2.6c-1.5,0-3.2-0.6-4.9-1.9c-1.7-1.3-4.1-3.6-7-7.1c-0.5-0.6-4.7-5.8-12.6-15.7c-8-9.9-15.7-18.8-23.2-26.6
		l-0.1,9.6c-0.1,10.3,0.1,18.2,0.5,23.7s1.2,9.7,2.3,12.5c-1.9,1.3-3.6,2.3-5.1,2.9s-2.9,0.9-4.3,0.9c-2,0-3.5-0.9-4.3-2.6
		c-0.9-1.7-1.3-4.4-1.3-8.2c0-2.2,0.3-8.2,0.7-18.1c0.5-9.9,0.7-18.8,0.8-26.6c0.1-10.8-0.1-18.8-0.7-24.2
		c-0.5-5.3-1.5-9.4-2.8-12.2c1.9-1.1,3.7-1.9,5.3-2.5c1.6-0.6,3.1-0.8,4.5-0.8c2.1,0,3.6,0.7,4.4,1.9s1.2,3.6,1.2,6.9
		c0,0.7-0.1,2.3-0.2,5C333.4,38.4,333.1,48.2,332.9,57.4z"/>
</g>
<g>
	<path class="st1" d="M414.4,106.9c-1.7,1-3.3,1.8-4.8,2.2c-1.5,0.5-3,0.7-4.4,0.7c-2,0-3.3-0.6-4-1.7c-0.7-1.2-1.1-3.5-1.1-7
		c0-2,0.2-6.6,0.5-13.6c0.4-7,0.5-13.1,0.5-18.1c0-5.5-0.2-10-0.7-13.4s-1.3-6.4-2.3-8.8c1.5-1,3-1.7,4.6-2.2s3.1-0.8,4.6-0.8
		c1.8,0,3.1,0.5,3.8,1.5c0.7,1,1,2.8,1,5.5c0,0.7-0.2,4.6-0.5,11.5s-0.6,13.7-0.6,20c0,5.9,0.3,10.8,0.8,14.6
		C412.4,101.2,413.2,104.4,414.4,106.9z M413.9,24.1c0,2.5-0.8,4.6-2.4,6.3s-3.6,2.5-6.1,2.5c-2.1,0-3.8-0.7-5.1-2
		c-1.2-1.3-1.9-3.1-1.9-5.3c0-2.5,0.8-4.6,2.4-6.3c1.6-1.7,3.6-2.6,5.8-2.6c2.1,0,3.8,0.7,5.1,2.1C413.2,20.1,413.9,21.9,413.9,24.1
		z"/>
</g>
<g>
	<path class="st1" d="M435.4,52.7c-0.9,0-2.2,0-3.8,0.1c-1.6,0.1-2.7,0.1-3.1,0.1c-2.2,0-3.7-0.3-4.6-0.8s-1.3-1.5-1.3-2.8
		c0-0.6,0.1-1.3,0.4-2.2c0.2-0.8,0.6-1.8,1.2-2.8c0.4,0,1.2,0,2.2,0.1c1,0,1.8,0.1,2.4,0.1c1.4,0,3.6-0.1,6.7-0.2
		c0.4,0,0.7,0,0.9-0.1c0-0.5,0-1.3,0.1-2.3s0.1-1.8,0.1-2.3c0-3.7-0.3-7-0.8-9.8s-1.4-5.3-2.5-7.4c2.3-1,4.4-1.8,6.2-2.3
		c1.8-0.5,3.4-0.8,4.7-0.8c2.2,0,3.8,0.6,4.8,1.8s1.5,3.2,1.5,5.9c0,1.2-0.2,4.9-0.7,11.2c-0.2,2.3-0.3,4.2-0.4,5.5
		c3.1-0.4,5.9-0.7,8.4-0.9s4.7-0.3,6.7-0.3c1.8,0,3,0.3,3.8,0.9s1.2,1.5,1.2,2.8c0,0.7-0.2,1.6-0.7,2.7s-1.2,2.3-2.1,3.6
		c-1.4-0.3-2.9-0.5-4.4-0.6s-3.4-0.2-5.6-0.2c-0.4,0-1.5,0-3.4,0.1s-3.5,0.1-4.8,0.2c-0.5,7.4-0.8,13.5-1,18.3s-0.3,8.7-0.3,11.7
		c0,6.6,0.7,11.2,2,13.8c1.3,2.6,3.5,3.9,6.6,3.9c0.9,0,1.8-0.1,2.7-0.4c0.9-0.3,1.9-0.7,2.9-1.4c0.5,0.9,0.8,1.8,1,2.5
		s0.3,1.3,0.3,1.9c0,2.3-1.1,4.2-3.3,5.7c-2.2,1.5-5,2.2-8.5,2.2c-5.8,0-10.1-1.7-12.9-5.1s-4.2-8.6-4.2-15.6c0-2,0.3-7.3,0.8-15.8
		C434.7,65.2,435.2,58.2,435.4,52.7z"/>
</g>
<g>
	<path class="st1" d="M179.1,28.4c-2.1-1.1-4.7-1.8-7.7-2.3s-6.9-0.8-11.5-0.8c-1.9,0-5.5,0.1-10.7,0.2c-1.3,0-2.3,0.1-2.9,0.1
		l-0.5,29.2c1.1,0.1,2.2,0.1,3.5,0.1c1.2,0,3.2,0,5.9,0c5.3,0,9.7-0.1,13.2-0.4c3.5-0.3,6-0.7,7.6-1.2c0.5,1.2,0.8,2.3,1.1,3.3
		c0.2,0.9,0.4,1.8,0.4,2.5c0,2.1-0.6,3.6-1.9,4.6c-1.2,0.9-3.3,1.4-6.1,1.4c-0.9,0-3.2,0-6.8-0.1s-6.8-0.1-9.4-0.1c-2,0-3.6,0-4.6,0
		c-1.1,0-2.1,0.1-3,0.1c0,5-0.1,10.3-0.2,15.9c-0.1,5.6-0.3,11.8-0.5,18.4c0.4,0,1,0,1.8,0.1c5.3,0.1,9,0.2,11.3,0.2
		c4.3,0,8-0.3,11-0.8c3-0.6,5.7-1.4,8.1-2.7c0.9,1.7,1.5,3.1,1.9,4.4s0.6,2.4,0.6,3.5c0,2.3-0.7,4-2.1,4.9c-1.4,0.9-4.1,1.4-8,1.4
		c-1.9,0-4.8-0.1-8.7-0.2s-6.7-0.2-8.6-0.2c-4.3,0-8.5,0.1-12.8,0.3c-0.9,0-1.4,0.1-1.6,0.1c-1.4,0-2.4-0.4-3-1.1s-0.9-1.9-0.9-3.7
		c0-0.9,0.1-3.3,0.3-7.1c0.6-13.6,1-26.4,1-38.3c0-11.8-0.2-21.3-0.6-28.4c-0.4-7.1-1-12.5-1.8-16h7.6c9.4,0,19-0.3,28.9-1
		c2.1-0.1,3.4-0.2,3.9-0.2c3.3,0,5.5,0.4,6.7,1.2c1.2,0.8,1.8,2.2,1.8,4.2c0,1.1-0.2,2.4-0.6,3.9C180.7,25,180,26.6,179.1,28.4z"/>
</g>
<path class="st2" d="M90.6,115.6h-56c-7.6,0-13.8-6.2-13.8-13.8v-1.5c0-7.6,6.2-13.8,13.8-13.8h56c7.6,0,13.8,6.2,13.8,13.8v1.5
	C104.4,109.3,98.2,115.6,90.6,115.6z"/>
<path class="st3" d="M22,106L6.4,52.2c-2.1-7.3,2.1-15,9.4-17.1l1.4-0.4c7.3-2.1,15,2.1,17.1,9.4l15.6,53.8c2.1,7.3-2.1,15-9.4,17.1
	l-1.4,0.4C31.8,117.5,24.1,113.3,22,106z"/>
<path class="st4" d="M73.7,29.2L27.9,61.3C21.7,65.7,13,64.2,8.6,58l-0.8-1.2C3.4,50.6,5,41.9,11.2,37.5L57,5.4
	C63.2,1,71.9,2.5,76.3,8.7l0.8,1.2C81.5,16.2,80,24.8,73.7,29.2z"/>
<path class="st5" d="M100.7,61.8L55.9,28.3C49.8,23.8,48.5,15,53.1,9L54,7.7c4.5-6.1,13.3-7.4,19.3-2.8l44.9,33.5
	c6.1,4.5,7.4,13.3,2.8,19.3l-0.9,1.2C115.5,65.1,106.8,66.3,100.7,61.8z"/>
<path class="st6" d="M122.9,53.6l-18.7,52.8c-2.5,7.2-10.5,11-17.6,8.4l-1.4-0.5c-7.2-2.5-11-10.5-8.4-17.6l18.7-52.8
	c2.5-7.2,10.5-11,17.6-8.4l1.4,0.5C121.7,38.5,125.5,46.4,122.9,53.6z"/>
<path class="st2" d="M63.5,86.5h28c0,0,12.3-0.5,13.8,13.8c0,15.6-13.8,15.3-13.8,15.3h-28"/>
</svg>
